# xmcd
#
# Track frame offsets:
#	150
#	8355
#	14860
#	29515
#	48875
#	62822
#	74000
#	83922
#	94520
#	108732
#	120455
#	139112
#	152257
#	162277
#	174900
#	183525
#	195400
#	207572
#	218922
#	232490
#
# Disc length: 3336
#
# Revision: 1
# Processed by: cddbd v1.5.1PL0 Copyright (c) Steve Scherf et al.
# Submitted via: CDex 1.51
# Normalized: r0:DSETVAR1,TDELIM( - )
#
DISCID=190d0614
DTITLE=Various Artist - Anarchy From The UK Volume One
DYEAR=1996
DGENRE=Old School Punk
TTITLE0=Punk's Not Dead - The Exploited
TTITLE1=I Live In A Car - UK Subs
TTITLE2=Streets Of London - Anti-Nowhere League
TTITLE3=Hanging Around - The Stranglers
TTITLE4=Woman In Disguise - Angelic Upstarts
TTITLE5=Angels With Dirty Faces - Sham 69
TTITLE6=Harry May - The Business
TTITLE7=Viva La Revolution - The Adicts
TTITLE8=Alternative Ulster (Live) - Stiff Little Fingers
TTITLE9=Run Like Hell - Peter and The Test-Tube Babies
TTITLE10=Homicide (Live) - 999
TTITLE11=Warriors - Blitz
TTITLE12=Jet Boy Jet Girl - Chron Gen
TTITLE13=Last Rockers - Vice Squad
TTITLE14=Ain't Got A Clue (Live) - The Lurkers
TTITLE15=Burn 'em Down - Abrasive Wheels
TTITLE16=Jerusalem - One Way System
TTITLE17=Another Dead Soldier - Anti-Pasti
TTITLE18=Survival (Single Version) - The Defects
TTITLE19=Fun Factory - The Damned
EXTD=YEAR: 1996
EXTT0=
EXTT1=
EXTT2=
EXTT3=
EXTT4=
EXTT5=
EXTT6=
EXTT7=
EXTT8=
EXTT9=
EXTT10=
EXTT11=
EXTT12=
EXTT13=
EXTT14=
EXTT15=
EXTT16=
EXTT17=
EXTT18=
EXTT19=
PLAYORDER=
